# xmcd CD database file
#
# Track frame offsets:
#	150
#	17624
#	28649
#	42618
#	56858
#	75171
#	86626
#	107160
#	123192
#	140220
#	159027
#	174938
#	188367
#	202113
#	216770
#	229880
#	252437
#	261938
#	276131
#	293182
#
# Disc length: 4156 seconds
#
# Revision: 12
# Processed by: cddbd v1.5.2PL0 Copyright (c) Steve Scherf et al.
# Submitted via: CDex 1.51
#
DISCID=1a103a14
DTITLE=Various Artist - All Jazz  (Jazz Divas)  [CD 1-5]
DYEAR=2007
DGENRE=Jazz
TTITLE0=Diana Krall - Straighten Up And Fly Right
TTITLE1=Stacey Kent - You're The Top
TTITLE2=Anne Ducros - Close Your Eyes
TTITLE3=Sara Lazarus - This Can't Be Love
TTITLE4=Abbey Lincoln - When Malindy Sings
TTITLE5=Mina Agossi - Why Don't You Do Right ¿
TTITLE6=Jacqui Dankworth - Blue Moon
TTITLE7=Elisabeth Kontomanou - I'll Never Be The Same
TTITLE8=Isa Sand - One For My Baby
TTITLE9=Rigmor Gustafsson and Nils Landgren - Is It A Crime
TTITLE10=Clare Teal - Blue Skies
TTITLE11=Ella Fitzgerald - Ool Ya Koo
TTITLE12=Roy Eldridge and Anita O'day - Let Me Off Uptown
TTITLE13=Sarah Vaughan - It's Magic
TTITLE14=Billie Holiday - Don't Explain
TTITLE15=Joel Harrison Feat. Norah Jones - I Walk The Line
TTITLE16=Clara Hill - Maybe Now
TTITLE17=Viktoria Tolstoy - The Way Young Lovers Do
TTITLE18=Quantic Soul Orchestra Feat. Alice Russel - Feeling Good
TTITLE19=Belleruche - Minor Swing
EXTD=YEAR: 2007
EXTT0=
EXTT1=
EXTT2=
EXTT3=
EXTT4=
EXTT5=
EXTT6=
EXTT7=
EXTT8=
EXTT9=
EXTT10=
EXTT11=
EXTT12=
EXTT13=
EXTT14=
EXTT15=
EXTT16=
EXTT17=
EXTT18=
EXTT19=
PLAYORDER=
